<svg width="163" height="63" viewBox="0 0 163 63" fill="none" xmlns="http://www.w3.org/2000/svg">
<rect width="163" height="63" fill="white"/>
<path d="M38.2145 29.136H44.2145V29.016C44.2145 27.656 43.8545 26.608 43.1345 25.872C42.4145 25.136 41.4225 24.768 40.1585 24.768C39.1185 24.768 38.3265 24.992 37.7825 25.44C37.2385 25.872 36.8145 26.456 36.5105 27.192L33.8705 25.68C34.5265 24.48 35.3425 23.56 36.3185 22.92C37.3105 22.28 38.5905 21.96 40.1585 21.96C42.4945 21.96 44.3105 22.68 45.6065 24.12C46.9185 25.544 47.5745 27.672 47.5745 30.504C47.5745 33.336 46.9185 35.512 45.6065 37.032C44.3105 38.536 42.4945 39.288 40.1585 39.288C38.5265 39.288 37.1985 38.952 36.1745 38.28C35.1505 37.608 34.3505 36.672 33.7745 35.472L36.3425 33.888C36.6305 34.656 37.0705 35.28 37.6625 35.76C38.2705 36.24 39.1025 36.48 40.1585 36.48C41.4225 36.48 42.4145 36.104 43.1345 35.352C43.8545 34.6 44.2145 33.536 44.2145 32.16V31.92H38.2145V29.136ZM50.6028 26.472H53.6748V31.392H55.6908L57.5868 28.104C57.9388 27.496 58.2988 27.072 58.6668 26.832C59.0348 26.592 59.5228 26.472 60.1308 26.472H61.4988V28.92H60.1548L58.8348 31.224C58.6108 31.64 58.3948 31.936 58.1868 32.112C57.9788 32.272 57.7308 32.392 57.4428 32.472V32.592C57.7308 32.656 57.9868 32.768 58.2108 32.928C58.4508 33.088 58.6828 33.368 58.9068 33.768L60.4668 36.552H61.7868V39H60.2268C59.6188 39 59.1148 38.872 58.7148 38.616C58.3308 38.36 57.9628 37.92 57.6108 37.296L55.6908 33.816H53.6748V39H50.6028V26.472ZM69.1406 39.288C68.2126 39.288 67.3886 39.136 66.6686 38.832C65.9486 38.528 65.3406 38.088 64.8446 37.512C64.3646 36.936 63.9966 36.248 63.7406 35.448C63.4846 34.632 63.3566 33.72 63.3566 32.712C63.3566 31.704 63.4846 30.8 63.7406 30C63.9966 29.2 64.3646 28.52 64.8446 27.96C65.3406 27.384 65.9486 26.944 66.6686 26.64C67.3886 26.336 68.2126 26.184 69.1406 26.184C70.4046 26.184 71.4446 26.464 72.2606 27.024C73.0926 27.584 73.6926 28.36 74.0606 29.352L71.5406 30.48C71.3966 29.952 71.1246 29.52 70.7246 29.184C70.3406 28.832 69.8126 28.656 69.1406 28.656C68.2766 28.656 67.6286 28.928 67.1966 29.472C66.7806 30.016 66.5726 30.728 66.5726 31.608V33.888C66.5726 34.768 66.7806 35.48 67.1966 36.024C67.6286 36.552 68.2766 36.816 69.1406 36.816C69.8766 36.816 70.4446 36.632 70.8446 36.264C71.2446 35.88 71.5566 35.408 71.7806 34.848L74.1326 35.976C73.7166 37.08 73.0846 37.912 72.2366 38.472C71.3886 39.016 70.3566 39.288 69.1406 39.288ZM76.5013 26.472H87.1093V39H84.0373V28.92H79.5733V39H76.5013V26.472ZM95.6255 39.288C94.7295 39.288 93.9215 39.136 93.2015 38.832C92.4975 38.528 91.8895 38.088 91.3775 37.512C90.8815 36.936 90.4975 36.248 90.2255 35.448C89.9535 34.632 89.8175 33.72 89.8175 32.712C89.8175 31.704 89.9535 30.8 90.2255 30C90.4975 29.2 90.8815 28.52 91.3775 27.96C91.8895 27.384 92.4975 26.944 93.2015 26.64C93.9215 26.336 94.7295 26.184 95.6255 26.184C96.5215 26.184 97.3295 26.336 98.0495 26.64C98.7695 26.944 99.3775 27.384 99.8735 27.96C100.386 28.52 100.778 29.2 101.05 30C101.322 30.8 101.458 31.704 101.458 32.712C101.458 33.72 101.322 34.632 101.05 35.448C100.778 36.248 100.386 36.936 99.8735 37.512C99.3775 38.088 98.7695 38.528 98.0495 38.832C97.3295 39.136 96.5215 39.288 95.6255 39.288ZM95.6255 36.816C96.4415 36.816 97.0815 36.568 97.5455 36.072C98.0095 35.576 98.2415 34.848 98.2415 33.888V31.56C98.2415 30.616 98.0095 29.896 97.5455 29.4C97.0815 28.904 96.4415 28.656 95.6255 28.656C94.8255 28.656 94.1935 28.904 93.7295 29.4C93.2655 29.896 93.0335 30.616 93.0335 31.56V33.888C93.0335 34.848 93.2655 35.576 93.7295 36.072C94.1935 36.568 94.8255 36.816 95.6255 36.816ZM104.181 26.472H107.253V28.536H107.349C107.573 27.816 107.997 27.248 108.621 26.832C109.245 26.4 109.973 26.184 110.805 26.184C112.405 26.184 113.621 26.752 114.453 27.888C115.301 29.008 115.725 30.616 115.725 32.712C115.725 34.824 115.301 36.448 114.453 37.584C113.621 38.72 112.405 39.288 110.805 39.288C109.973 39.288 109.245 39.072 108.621 38.64C108.013 38.208 107.589 37.632 107.349 36.912H107.253V43.8H104.181V26.472ZM109.821 36.744C110.621 36.744 111.269 36.48 111.765 35.952C112.261 35.424 112.509 34.712 112.509 33.816V31.656C112.509 30.76 112.261 30.048 111.765 29.52C111.269 28.976 110.621 28.704 109.821 28.704C109.085 28.704 108.469 28.888 107.973 29.256C107.493 29.624 107.253 30.112 107.253 30.72V34.704C107.253 35.36 107.493 35.864 107.973 36.216C108.469 36.568 109.085 36.744 109.821 36.744ZM120.951 28.92H117.135V26.472H127.839V28.92H124.023V39H120.951V28.92Z" fill="#000105"/>
<rect x="1" y="1" width="160.8" height="61" stroke="black" stroke-width="2"/>
</svg>
